<?xml version="1.0" standalone="no"?>
<!DOCTYPE svg PUBLIC "-//W3C//DTD SVG 20010904//EN"
 "http://www.w3.org/TR/2001/REC-SVG-20010904/DTD/svg10.dtd">
<svg version="1.0" xmlns="http://www.w3.org/2000/svg"
 width="512.000000pt" height="512.000000pt" viewBox="0 0 512.000000 512.000000"
 preserveAspectRatio="xMidYMid meet">
<metadata>
Created by potrace 1.16, written by Peter Selinger 2001-2019
</metadata>
<g transform="translate(0.000000,512.000000) scale(0.100000,-0.100000)"
fill="#000000" stroke="none">
<path d="M0 2560 l0 -2560 138 0 c76 0 141 3 145 6 3 3 -22 32 -56 64 l-62 58
-58 -54 c-56 -52 -77 -64 -77 -45 0 6 24 36 54 68 l54 59 -55 57 c-30 31 -59
57 -64 57 -26 0 -3 44 48 94 48 45 59 52 64 38 5 -12 -7 -31 -37 -62 l-44 -45
128 -128 128 -127 44 45 c29 30 53 45 69 45 23 0 21 -5 -32 -58 -31 -32 -57
-61 -57 -65 0 -4 54 -7 120 -7 66 0 120 3 120 7 0 4 -26 33 -57 65 -44 44 -53
58 -38 58 11 0 41 -21 67 -47 l48 -47 48 47 c26 26 56 47 67 47 15 0 6 -14
-38 -58 -31 -32 -57 -61 -57 -65 0 -4 54 -7 120 -7 66 0 120 3 120 7 0 4 -26
33 -57 65 -52 52 -55 58 -33 58 15 0 41 -17 70 -45 l46 -45 44 45 c30 30 52
45 70 45 23 -1 19 -6 -37 -60 -35 -33 -63 -62 -63 -65 0 -3 57 -5 127 -5 l127
0 -64 65 c-58 59 -62 65 -39 65 16 0 40 -15 69 -45 l44 -45 46 45 c29 29 55
45 70 45 22 0 17 -7 -40 -65 l-64 -65 129 0 129 0 -64 65 c-58 59 -62 65 -39
65 16 0 40 -15 69 -45 l44 -45 46 45 c29 28 55 45 70 45 22 0 19 -6 -33 -58
-31 -32 -57 -61 -57 -65 0 -4 54 -7 120 -7 66 0 120 2 120 5 0 3 -28 32 -62
65 -57 54 -61 59 -38 60 18 0 40 -15 70 -45 l44 -45 46 45 c29 28 55 45 70 45
22 0 19 -6 -33 -58 -31 -32 -57 -61 -57 -65 0 -4 54 -7 120 -7 66 0 120 3 120
7 0 4 -26 33 -57 65 -44 44 -53 58 -38 58 11 0 41 -21 67 -47 l48 -47 48 47
c26 26 56 47 67 47 15 0 6 -14 -38 -58 -31 -32 -57 -61 -57 -65 0 -4 54 -7
120 -7 66 0 120 3 120 7 0 4 -26 33 -57 65 -53 53 -55 58 -32 58 16 0 40 -15
69 -45 l44 -45 46 45 c30 29 54 45 70 45 22 -1 18 -7 -37 -60 -35 -33 -63 -62
-63 -65 0 -3 57 -5 127 -5 l127 0 -64 65 c-58 59 -62 65 -39 65 16 0 40 -15
69 -45 l44 -45 46 45 c29 29 55 45 70 45 22 0 17 -7 -40 -65 l-64 -65 127 0
c70 0 127 2 127 5 0 3 -28 32 -62 65 -57 54 -61 59 -38 60 18 0 40 -15 70 -45
l44 -45 46 45 c29 28 55 45 70 45 22 0 19 -6 -33 -58 -31 -32 -57 -61 -57 -65
0 -4 54 -7 120 -7 66 0 120 2 120 5 0 3 -28 32 -62 65 -56 53 -60 59 -38 60
16 0 41 -16 72 -47 l48 -47 48 47 c26 26 56 47 67 47 15 0 6 -14 -38 -58 -31
-32 -57 -61 -57 -65 0 -4 54 -7 120 -7 66 0 120 3 120 7 0 4 -26 33 -57 65
-53 53 -55 58 -32 58 16 0 40 -15 69 -45 l44 -45 46 45 c30 29 54 45 70 45 22
-1 18 -7 -37 -59 -35 -32 -63 -61 -63 -65 0 -3 54 -6 120 -6 66 0 120 3 120 7
0 4 -26 33 -57 65 -53 53 -55 58 -32 58 16 0 40 -15 69 -45 l44 -45 46 45 c29
29 55 45 70 45 22 0 17 -7 -40 -65 l-64 -65 129 0 129 0 -64 65 c-58 59 -62
65 -39 65 16 0 40 -15 69 -45 l44 -45 46 45 c29 29 55 45 70 45 22 0 17 -7
-40 -65 l-64 -65 127 0 c70 0 127 3 127 6 0 4 -28 33 -62 65 -57 53 -61 58
-38 59 18 0 40 -14 70 -45 l44 -45 46 45 c29 28 55 45 70 45 22 0 19 -6 -33
-58 -31 -32 -57 -61 -57 -65 0 -4 54 -7 120 -7 66 0 120 3 120 7 0 4 -26 33
-57 65 -44 44 -53 58 -38 58 11 0 41 -21 67 -47 l48 -47 48 47 c26 26 56 47
67 47 15 0 6 -14 -38 -58 -31 -32 -57 -61 -57 -65 0 -4 54 -7 120 -7 66 0 120
3 120 7 0 4 -26 33 -57 65 -52 52 -55 58 -33 58 15 0 41 -17 70 -45 l46 -45
127 127 127 127 -39 40 c-27 29 -37 46 -32 59 5 15 13 11 50 -27 25 -25 48
-43 53 -40 4 3 8 54 8 114 0 60 -4 111 -8 114 -5 3 -28 -15 -52 -39 -24 -25
-48 -45 -52 -45 -19 0 -5 29 32 65 l40 39 -40 41 c-29 29 -39 47 -34 59 6 15
14 11 53 -28 26 -26 50 -43 54 -40 9 9 9 219 0 228 -4 3 -28 -14 -54 -40 -39
-39 -47 -43 -53 -28 -5 12 5 30 34 59 l40 41 -39 38 c-24 23 -37 44 -34 53 4
11 18 2 52 -31 26 -26 50 -43 54 -40 9 9 9 219 0 228 -4 3 -28 -14 -54 -40
-41 -40 -47 -43 -51 -26 -4 14 6 31 33 58 l39 38 -39 41 c-28 29 -37 45 -32
58 6 16 13 13 49 -27 23 -25 47 -46 52 -46 6 0 10 47 10 115 0 63 -4 115 -8
115 -4 0 -28 -20 -52 -45 -38 -39 -46 -43 -51 -28 -5 13 5 30 32 58 l39 41
-39 38 c-27 27 -37 44 -33 58 4 17 10 14 51 -26 26 -26 50 -43 54 -40 11 11 8
224 -3 224 -5 0 -29 -21 -52 -46 -36 -40 -43 -43 -49 -27 -5 13 4 29 32 58
l39 41 -39 38 c-27 27 -37 44 -33 58 4 17 10 14 51 -26 26 -26 50 -43 54 -40
4 4 7 55 7 114 0 59 -3 110 -7 114 -4 3 -28 -14 -54 -40 -34 -33 -48 -42 -52
-31 -3 9 10 30 34 53 l39 38 -40 41 c-29 29 -39 47 -34 59 6 15 14 11 53 -28
26 -26 50 -43 54 -40 9 9 9 219 0 228 -4 3 -28 -14 -54 -40 -39 -39 -47 -43
-53 -28 -5 12 5 30 34 59 l40 41 -39 38 c-24 23 -37 44 -34 53 4 11 18 2 52
-31 26 -26 50 -43 54 -40 9 9 9 219 0 228 -4 3 -28 -14 -54 -40 -41 -40 -47
-43 -51 -26 -4 14 6 31 33 58 l39 38 -39 41 c-28 29 -37 45 -32 58 6 16 13 13
49 -27 23 -25 47 -46 52 -46 6 0 10 47 10 115 0 68 -4 115 -10 115 -5 0 -29
-21 -52 -46 -36 -40 -43 -43 -49 -27 -5 13 4 29 32 58 l39 41 -39 38 c-27 27
-37 44 -33 58 4 17 10 14 51 -26 26 -26 50 -43 54 -40 11 11 8 224 -2 224 -6
0 -30 -21 -54 -47 -39 -41 -44 -44 -49 -25 -4 15 5 31 33 58 l39 38 -40 41
c-29 29 -39 47 -34 59 6 15 14 11 53 -28 26 -26 50 -43 54 -40 9 9 9 219 0
228 -4 3 -28 -14 -54 -40 -39 -39 -47 -43 -53 -28 -5 12 5 30 34 59 l40 41
-39 38 c-24 23 -37 44 -34 53 4 11 18 2 52 -31 26 -26 50 -43 54 -40 9 9 9
219 0 228 -4 3 -28 -14 -54 -40 -39 -39 -47 -43 -53 -28 -5 12 5 30 34 59 l40
41 -39 38 c-28 27 -37 43 -33 58 5 19 10 16 49 -25 24 -26 48 -47 54 -47 11 0
12 217 1 224 -5 3 -28 -15 -53 -40 -37 -38 -45 -42 -50 -27 -5 13 5 30 32 58
l39 41 -40 39 c-36 35 -53 75 -32 75 4 0 28 -20 52 -45 24 -25 48 -45 52 -45
4 0 8 52 8 115 0 68 -4 115 -10 115 -5 0 -29 -21 -52 -46 -36 -40 -43 -43 -49
-27 -5 13 4 29 32 58 l39 41 -40 39 c-36 35 -53 75 -32 75 4 0 28 -20 52 -45
24 -24 47 -42 52 -39 4 3 8 54 8 114 0 60 -4 111 -8 114 -5 3 -28 -15 -52 -39
-24 -25 -48 -45 -52 -45 -19 0 -5 29 32 65 l40 39 -40 41 c-29 29 -39 47 -34
59 6 15 14 11 53 -28 26 -26 50 -43 54 -40 10 10 9 222 -1 228 -5 3 -28 -15
-52 -39 -24 -25 -48 -45 -52 -45 -21 0 -4 40 32 75 l40 39 -39 41 c-21 22 -41
51 -44 64 -5 20 5 13 52 -33 31 -31 60 -53 64 -50 4 4 7 70 7 146 l0 138 -130
0 c-159 0 -167 -7 -94 -82 41 -42 45 -49 24 -43 -14 4 -41 22 -60 41 l-36 34
-34 -35 c-31 -32 -70 -47 -70 -27 0 4 18 25 39 46 58 57 48 66 -74 66 -129 0
-142 -10 -85 -65 22 -22 40 -43 40 -47 0 -19 -37 -6 -67 24 l-33 32 -33 -32
c-30 -30 -67 -43 -67 -24 0 4 18 25 39 46 59 57 49 66 -79 66 -128 0 -138 -9
-79 -66 21 -21 39 -42 39 -46 0 -20 -39 -5 -70 27 l-34 35 -36 -35 c-33 -32
-60 -45 -60 -28 0 4 16 24 36 44 57 59 45 69 -80 69 -123 0 -133 -9 -75 -66
21 -21 39 -42 39 -46 0 -20 -39 -5 -70 27 l-34 35 -36 -35 c-33 -32 -70 -46
-70 -27 0 4 18 25 39 46 59 58 49 66 -80 66 -126 0 -131 -5 -69 -65 22 -21 40
-43 40 -47 0 -20 -39 -5 -70 27 l-34 35 -36 -35 c-33 -32 -70 -46 -70 -27 0 4
18 25 39 46 59 58 49 66 -80 66 -98 0 -109 -2 -109 -18 0 -10 16 -33 35 -52
19 -19 35 -38 35 -42 0 -18 -28 -6 -60 27 l-34 35 -36 -35 c-33 -32 -70 -46
-70 -27 0 4 18 25 39 46 59 57 49 66 -79 66 -128 0 -138 -9 -79 -66 21 -21 39
-42 39 -46 0 -19 -37 -6 -67 24 l-33 32 -33 -32 c-30 -30 -67 -43 -67 -24 0 4
18 25 39 46 59 57 49 66 -79 66 -128 0 -138 -9 -79 -66 21 -21 39 -42 39 -46
0 -20 -39 -5 -70 27 l-34 35 -36 -35 c-34 -33 -60 -45 -60 -27 0 4 16 23 35
42 19 19 35 42 35 52 0 16 -11 18 -109 18 -129 0 -139 -8 -80 -66 21 -21 39
-42 39 -46 0 -20 -39 -5 -70 27 l-34 35 -36 -35 c-33 -32 -70 -46 -70 -27 0 4
18 25 39 46 59 58 49 66 -80 66 -126 0 -131 -5 -69 -65 22 -21 40 -43 40 -47
0 -20 -39 -5 -70 27 l-34 35 -36 -35 c-33 -32 -70 -46 -70 -27 0 4 18 25 39
46 59 57 49 66 -79 66 -128 0 -138 -9 -79 -66 21 -21 39 -42 39 -46 0 -19 -37
-6 -67 24 l-33 32 -33 -32 c-30 -30 -67 -43 -67 -24 0 4 18 25 39 46 59 57 49
66 -79 66 -128 0 -138 -9 -79 -66 21 -21 39 -42 39 -46 0 -19 -37 -6 -67 24
l-33 32 -33 -32 c-30 -30 -67 -43 -67 -24 0 4 18 25 39 46 59 57 49 66 -79 66
-128 0 -138 -9 -79 -66 21 -21 39 -42 39 -46 0 -20 -39 -5 -70 27 l-34 35 -36
-35 c-33 -32 -70 -46 -70 -27 0 4 18 26 40 47 62 60 57 65 -69 65 -129 0 -139
-8 -80 -66 21 -21 39 -42 39 -46 0 -20 -39 -5 -70 27 l-34 35 -36 -35 c-33
-32 -70 -46 -70 -27 0 4 18 25 39 46 59 58 49 66 -80 66 -98 0 -109 -2 -109
-18 0 -10 16 -33 35 -52 19 -19 35 -38 35 -42 0 -18 -28 -6 -60 27 l-34 35
-36 -35 c-33 -32 -70 -46 -70 -27 0 4 18 25 39 46 59 57 49 66 -79 66 -128 0
-138 -9 -79 -66 21 -21 39 -42 39 -46 0 -19 -37 -6 -67 24 l-33 32 -33 -32
c-30 -30 -67 -43 -67 -24 0 4 18 25 39 46 59 57 49 66 -79 66 -128 0 -138 -9
-79 -66 21 -21 39 -42 39 -46 0 -20 -39 -5 -70 27 l-33 34 -43 -39 c-24 -22
-50 -40 -58 -40 -16 0 -66 -55 -66 -74 0 -6 -20 -32 -45 -56 l-45 -44 44 -46
c31 -32 42 -50 37 -63 -5 -15 -14 -10 -55 32 -27 28 -53 48 -58 45 -4 -3 -8 9
-8 26 0 17 4 29 8 26 5 -3 35 21 67 54 l58 59 -56 61 c-32 34 -57 68 -57 77 0
19 12 10 93 -66 l47 -45 55 54 c86 85 82 90 -85 90 l-140 0 0 -2560z m2698
239 c70 -35 105 -71 140 -148 33 -73 29 -186 -10 -252 -59 -100 -149 -153
-258 -153 -270 0 -397 334 -194 513 57 50 111 69 195 70 54 1 76 -4 127 -30z
m1059 -301 c30 -34 34 -55 19 -92 -24 -57 -105 -68 -142 -18 -21 27 -17 83 8
109 29 31 87 32 115 1z m-2563 -373 c67 -32 88 -127 41 -184 -74 -87 -202 -47
-213 67 -4 42 0 52 24 81 43 52 90 63 148 36z"/>
<path d="M2462 2744 c-164 -82 -169 -315 -8 -409 154 -90 346 21 346 202 -1
178 -178 287 -338 207z"/>
<path d="M5043 211 l-51 -56 54 -58 c30 -32 54 -62 54 -67 0 -21 -24 -8 -78
44 l-57 54 -62 -58 c-35 -32 -63 -60 -63 -64 0 -3 63 -6 140 -6 l140 0 0 135
c0 102 -3 135 -12 134 -7 -1 -36 -27 -65 -58z"/>
</g>
</svg>
